<?xml version="1.0" ?><!DOCTYPE svg  PUBLIC '-//W3C//DTD SVG 1.1//EN'  'http://www.w3.org/Graphics/SVG/1.1/DTD/svg11.dtd'><svg xmlns="http://www.w3.org/2000/svg" xmlns:xlink="http://www.w3.org/1999/xlink" version="1.1" id="Layer_1" width="512px" height="512px" viewBox="0 0 512 512" enable-background="new 0 0 512 512" xml:space="preserve"><g><path fill-rule="evenodd" clip-rule="evenodd" fill="#F5ACCC" d="M253.481,164.439h-89.979c-28.71,0-52.2-23.489-52.2-52.202   v-52.42c0-28.712,23.49-52.203,52.2-52.203h184.991c28.712,0,52.202,23.49,52.202,52.203v52.42   c0,28.708-23.49,52.202-52.202,52.202h-24.639l8.424,62.827L253.481,164.439z"/><path fill="#5B57A4" d="M195.132,59.613c0,1.083-0.039,1.982-0.129,2.715c-0.091,0.733-0.238,1.32-0.439,1.762   c-0.185,0.42-0.423,0.748-0.659,0.952c-0.256,0.222-0.552,0.331-0.864,0.331h-22.719v18.683h21.325   c0.312,0,0.605,0.093,0.846,0.277c0.256,0.183,0.476,0.477,0.677,0.916c0.201,0.42,0.346,1.007,0.439,1.724   c0.074,0.714,0.129,1.595,0.129,2.678c0,1.081-0.056,1.96-0.129,2.695c-0.093,0.715-0.238,1.304-0.439,1.76   c-0.202,0.477-0.421,0.807-0.677,0.989c-0.24,0.202-0.534,0.312-0.846,0.312h-21.325v25.892c0,0.383-0.11,0.734-0.331,1.01   c-0.219,0.294-0.605,0.529-1.155,0.731c-0.548,0.204-1.283,0.347-2.182,0.458c-0.899,0.111-2.034,0.164-3.427,0.164   c-1.358,0-2.493-0.053-3.411-0.164c-0.917-0.111-1.652-0.254-2.184-0.458c-0.531-0.203-0.915-0.438-1.153-0.731   c-0.24-0.275-0.349-0.627-0.349-1.01v-63.02c0-1.579,0.401-2.716,1.208-3.41c0.806-0.701,1.797-1.047,2.99-1.047h32.71   c0.312,0,0.607,0.09,0.864,0.293c0.236,0.204,0.474,0.515,0.659,0.971c0.201,0.441,0.348,1.047,0.439,1.798   C195.093,57.634,195.132,58.551,195.132,59.613L195.132,59.613z M258.208,121.497c0,0.405-0.074,0.733-0.22,1.008   c-0.147,0.259-0.476,0.478-1.028,0.661c-0.532,0.183-1.32,0.31-2.367,0.386c-1.026,0.073-2.438,0.108-4.233,0.108   c-1.502,0-2.714-0.035-3.593-0.108c-0.899-0.076-1.613-0.22-2.128-0.404c-0.513-0.202-0.878-0.458-1.1-0.752   c-0.218-0.312-0.402-0.677-0.55-1.1l-6.216-15.532c-0.749-1.759-1.486-3.32-2.2-4.675c-0.735-1.356-1.521-2.494-2.401-3.411   c-0.881-0.917-1.888-1.595-3.025-2.073c-1.157-0.458-2.477-0.696-3.979-0.696h-4.4v26.496c0,0.348-0.129,0.678-0.351,0.954   c-0.236,0.292-0.621,0.53-1.153,0.697c-0.55,0.185-1.266,0.328-2.163,0.439c-0.88,0.111-2.035,0.164-3.431,0.164   c-1.354,0-2.493-0.053-3.411-0.164c-0.915-0.111-1.647-0.254-2.181-0.439c-0.532-0.167-0.915-0.404-1.119-0.697   c-0.219-0.275-0.328-0.605-0.328-0.954V58.277c0-1.579,0.404-2.716,1.208-3.41c0.809-0.701,1.798-1.047,2.99-1.047h17.988   c1.832,0,3.337,0.038,4.51,0.109c1.192,0.075,2.256,0.165,3.227,0.256c2.787,0.407,5.301,1.083,7.554,2.054   c2.237,0.972,4.127,2.218,5.686,3.778c1.559,1.558,2.751,3.41,3.575,5.538c0.824,2.127,1.227,4.583,1.227,7.333   c0,2.331-0.289,4.456-0.876,6.363c-0.588,1.926-1.467,3.63-2.604,5.134c-1.157,1.503-2.567,2.806-4.256,3.924   c-1.667,1.102-3.594,1.998-5.74,2.677c1.047,0.513,2.02,1.119,2.935,1.834c0.899,0.716,1.76,1.575,2.567,2.601   c0.806,1.028,1.579,2.184,2.292,3.486c0.715,1.317,1.412,2.785,2.091,4.435l5.849,13.699c0.55,1.356,0.899,2.367,1.082,2.987   C258.116,120.653,258.208,121.15,258.208,121.497L258.208,121.497z M239.984,74.335c0-2.289-0.516-4.215-1.562-5.793   c-1.025-1.576-2.729-2.692-5.096-3.336c-0.718-0.183-1.522-0.33-2.44-0.42c-0.915-0.109-2.181-0.167-3.794-0.167h-6.325v19.713   h7.185c2.02,0,3.76-0.24,5.265-0.734c1.502-0.476,2.768-1.155,3.759-2.036c1.008-0.881,1.758-1.925,2.255-3.134   C239.744,77.199,239.984,75.839,239.984,74.335L239.984,74.335z M309.768,117.792c0,1.047-0.038,1.908-0.129,2.605   c-0.091,0.698-0.22,1.265-0.4,1.705c-0.185,0.421-0.406,0.733-0.681,0.936c-0.255,0.204-0.569,0.294-0.878,0.294h-34.913   c-1.192,0-2.182-0.349-2.99-1.047c-0.805-0.696-1.209-1.834-1.209-3.41V58.277c0-1.579,0.405-2.716,1.209-3.41   c0.808-0.701,1.797-1.047,2.99-1.047h34.693c0.329,0,0.606,0.09,0.862,0.274c0.254,0.168,0.457,0.479,0.642,0.937   c0.181,0.439,0.312,1.026,0.402,1.723c0.091,0.697,0.144,1.577,0.144,2.659c0,0.991-0.053,1.85-0.144,2.548   c-0.09,0.695-0.222,1.265-0.402,1.688c-0.185,0.442-0.388,0.753-0.642,0.933c-0.256,0.204-0.534,0.294-0.862,0.294h-24.811v16.979   h20.996c0.331,0,0.622,0.111,0.898,0.294c0.257,0.203,0.477,0.515,0.659,0.917c0.185,0.421,0.312,0.971,0.404,1.669   c0.092,0.698,0.127,1.539,0.127,2.548c0,1.044-0.035,1.908-0.127,2.584c-0.093,0.679-0.22,1.229-0.404,1.632   c-0.183,0.422-0.402,0.716-0.659,0.881c-0.276,0.183-0.568,0.273-0.898,0.273h-20.996v19.605h25.031   c0.31,0,0.624,0.107,0.878,0.313c0.275,0.18,0.497,0.492,0.681,0.934c0.181,0.42,0.31,0.989,0.4,1.688   C309.73,115.884,309.768,116.764,309.768,117.792L309.768,117.792z M363.437,117.792c0,1.047-0.037,1.908-0.127,2.605   c-0.092,0.698-0.221,1.265-0.404,1.705c-0.183,0.421-0.402,0.733-0.679,0.936c-0.257,0.204-0.569,0.294-0.879,0.294h-34.912   c-1.192,0-2.182-0.349-2.99-1.047c-0.805-0.696-1.209-1.834-1.209-3.41V58.277c0-1.579,0.404-2.716,1.209-3.41   c0.808-0.701,1.797-1.047,2.99-1.047h34.692c0.329,0,0.605,0.09,0.86,0.274c0.256,0.168,0.459,0.479,0.644,0.937   c0.183,0.439,0.312,1.026,0.402,1.723c0.09,0.697,0.144,1.577,0.144,2.659c0,0.991-0.054,1.85-0.144,2.548   c-0.091,0.695-0.22,1.265-0.402,1.688c-0.185,0.442-0.388,0.753-0.644,0.933c-0.255,0.204-0.532,0.294-0.86,0.294h-24.811v16.979   h20.996c0.331,0,0.622,0.111,0.899,0.294c0.256,0.203,0.476,0.515,0.659,0.917c0.185,0.421,0.312,0.971,0.404,1.669   c0.093,0.698,0.128,1.539,0.128,2.548c0,1.044-0.035,1.908-0.128,2.584c-0.092,0.679-0.219,1.229-0.404,1.632   c-0.183,0.422-0.402,0.716-0.659,0.881c-0.277,0.183-0.568,0.273-0.899,0.273h-20.996v19.605h25.031   c0.31,0,0.622,0.107,0.879,0.313c0.276,0.18,0.496,0.492,0.679,0.934c0.183,0.42,0.312,0.989,0.404,1.688   C363.4,115.884,363.437,116.764,363.437,117.792z"/><polygon fill-rule="evenodd" clip-rule="evenodd" fill="#FFF584" points="473.097,467.95 38.904,467.95 38.904,351.195    77.473,338.527 101.363,256.279 205.874,256.279 205.87,206.223 473.097,206.223  "/><path fill-rule="evenodd" clip-rule="evenodd" fill="#F5ACCC" d="M117.068,431.519c20.118,0,36.432,16.316,36.432,36.431   c0,20.118-16.313,36.433-36.432,36.433c-20.115,0-36.433-16.314-36.433-36.433C80.636,447.834,96.953,431.519,117.068,431.519z"/><path fill-rule="evenodd" clip-rule="evenodd" fill="#F5ACCC" d="M394.927,431.519c20.117,0,36.432,16.316,36.432,36.431   c0,20.118-16.315,36.433-36.432,36.433c-20.115,0-36.432-16.314-36.432-36.433C358.495,447.834,374.812,431.519,394.927,431.519z"/><path fill="#5B57A4" d="M473.097,475.565h-34.781C434.667,496.438,416.275,512,394.927,512c-21.348,0-39.74-15.562-43.389-36.435   H160.46C156.82,496.436,138.344,512,117.068,512s-39.751-15.564-43.39-36.435H38.904c-4.207,0-7.616-3.408-7.616-7.615V351.195   c0-3.545,2.422-6.525,5.699-7.374l34.321-11.268l22.765-78.389c0.963-3.32,3.994-5.479,7.29-5.478l96.925-0.026l-0.004-42.438   c0-4.188,3.396-7.585,7.587-7.585l78.271-0.03l-33.301-26.552h-87.338c-32.71,0-59.816-27.108-59.816-59.818v-52.42   C103.686,27.107,130.792,0,163.502,0h184.991c32.71,0,59.817,27.107,59.817,59.818v52.42c0,32.708-27.107,59.818-59.817,59.818   h-15.954l3.561,26.552h136.998c4.204,0,7.615,3.408,7.615,7.615V405v62.949C480.712,472.157,477.301,475.565,473.097,475.565   L473.097,475.565z M137.17,368.931h-27.547c-4.205,0-7.618,3.41-7.618,7.616c0,4.208,3.413,7.616,7.618,7.616h27.547   c4.205,0,7.616-3.409,7.616-7.616C144.786,372.341,141.375,368.931,137.17,368.931L137.17,368.931z M254.133,346.359h170.693   c4.207,0,7.618-3.41,7.618-7.617c0-4.206-3.411-7.615-7.618-7.615H254.133c-4.207,0-7.616,3.409-7.616,7.615   C246.518,342.949,249.927,346.359,254.133,346.359L254.133,346.359z M254.133,280.101h170.693c4.207,0,7.618-3.409,7.618-7.616   s-3.411-7.619-7.618-7.619H254.133c-4.207,0-7.616,3.412-7.616,7.619S249.927,280.101,254.133,280.101L254.133,280.101z    M308.53,198.607h12.241l-4.369-32.583c-0.987-4.634,2.604-9.203,7.451-9.203h24.639c24.355,0,44.586-20.23,44.586-44.584v-52.42   c0-24.357-20.229-44.584-44.586-44.584H163.502c-24.358,0-44.583,20.227-44.583,44.584v52.42c0,24.355,20.225,44.584,44.583,44.584   l89.979,0.017c1.66-0.001,3.333,0.535,4.73,1.65L308.53,198.607L308.53,198.607z M438.316,460.333h27.163v-47.718H205.907   c-4.207,0-7.616-3.408-7.616-7.615c0-0.142,0.004-0.285,0.012-0.428l-0.014-140.679h-53.503v74.633   c0,4.207-3.411,7.618-7.616,7.618H78.649l-32.13,10.552v103.637h27.159c3.638-20.868,22.114-36.43,43.39-36.43   s39.751,15.562,43.392,36.43h191.078c3.649-20.868,22.039-36.43,43.389-36.43C416.275,423.903,434.667,439.465,438.316,460.333   L438.316,460.333z M394.927,439.135c-15.832,0-28.816,12.984-28.816,28.815c0,15.833,12.984,28.818,28.816,28.818   s28.816-12.984,28.816-28.818C423.743,452.119,410.758,439.135,394.927,439.135L394.927,439.135z M117.068,439.135   c-15.802,0-28.817,13.016-28.817,28.815c0,15.805,13.016,28.818,28.817,28.818c15.804,0,28.815-13.013,28.815-28.818   C145.883,452.15,132.873,439.135,117.068,439.135L117.068,439.135z M213.476,397.384h252.003V213.84H213.457   C213.463,275.021,213.469,336.201,213.476,397.384L213.476,397.384z M87.588,330.911h41.963v-67.017h-22.498L87.588,330.911z"/></g></svg>