<?xml version="1.0" ?><svg xmlns="http://www.w3.org/2000/svg" xmlns:xlink="http://www.w3.org/1999/xlink" version="1.1" id="Layer_1" viewBox="0 0 32 32" style="enable-background:new 0 0 32 32;" xml:space="preserve"><style type="text/css">
	.st0{fill:none;stroke:#000000;stroke-linecap:round;stroke-linejoin:round;stroke-miterlimit:10;}
</style><g><path class="st0" d="M24.2,21l-1.1,0.6c-0.7,0.4-1.5,0.4-2.2,0L19.8,21c-4.2-2.4-6.8-6.5-6.8-11V5.6c0-1.1,0.8-2,1.9-2.2   c2.4-0.4,4.6-1.3,5.9-2c0.8-0.4,1.6-0.3,2.2,0c1.2,0.7,3.3,1.7,6,2c1.1,0.1,2,1.1,2,2.2V10C31,14.5,28.5,18.6,24.2,21z"/><g><circle class="st0" cx="22" cy="11.5" r="5.5"/><g><g><path class="st0" d="M23.5,9.5h-1.2h-0.8c-0.6,0-1,0.5-1,1l0,0c0,0.6,0.5,1,1,1h0.9"/><path class="st0" d="M22.5,11.5c0.6,0,1,0.5,1,1l0,0c0,0.6-0.5,1-1,1h-2"/></g><line class="st0" x1="22.3" y1="8.4" x2="22.3" y2="9.5"/><line class="st0" x1="22.3" y1="13.6" x2="22.3" y2="14.7"/></g></g><path class="st0" d="M18.7,26.6v4.2H1v-4.2h1.3V16.5H15c0.7,1.1,1.5,2,2.5,2.9v7.2C17.5,26.6,18.7,26.6,18.7,26.6z"/><path class="st0" d="M15,16.5H4.7v-4.8c0-2.9,2.3-5.4,5.2-5.4c1.2,0,2.3,0.4,3.2,1.1V10C13.1,12.3,13.7,14.6,15,16.5z"/><path class="st0" d="M12,22.4c0,0.7-0.4,1.4-0.9,1.8v3H8.6v-3c-0.6-0.4-0.9-1-0.9-1.8c0-1.2,1-2.2,2.2-2.2S12,21.2,12,22.4z"/></g></svg>